<?xml version="1.0" encoding="utf-8"?>
<!-- Generator: Adobe Illustrator 29.7.1, SVG Export Plug-In . SVG Version: 9.03 Build 0)  -->
<svg version="1.1" id="レイヤー_1" xmlns="http://www.w3.org/2000/svg" xmlns:xlink="http://www.w3.org/1999/xlink" x="0px"
	 y="0px" viewBox="0 0 512 128" style="enable-background:new 0 0 512 128;" xml:space="preserve">
<style type="text/css">
	.st0{fill:#B5B5B6;stroke:#B5B5B6;stroke-width:3;stroke-miterlimit:10;}
	.st1{fill:none;stroke:#B5B5B6;stroke-width:3;stroke-miterlimit:10;}
</style>
<path class="st0" d="M175.07,59.02c-12.61,9.45-28.67,19.99-47.65,29.84C70.35,118.48,9.77,126.32,0,127.21c0,0,0-0.01,512-0.01
	c9.82,0-102.43-12.88-158.64-44.15c-11.96-6.66-23.97-12.28-30.96-16.13l-22.29-3.32l-16.87,1.18l-9.64-5.88l-4.36,7.9l-2.42-3.13
	l-5.6-0.12l-2.24-1.74l-1.34,3.23l-4.82-11.59l-3,0.62l-2.42,10.11l-2.78,2.97l-1.42-4.9l-3.66-4.89l-2.21-0.13l-3.52,9.64
	l-2.34-6.77l0.52-7.16l-4.82,6.64l-2.47,0.13l-0.93-7.12l-12.5,14.06l2.02-12.18l-4.74-3.88l-2.99,1.3l-18.73,19.98l2.78-16.02
	L175.07,59.02z"/>
<path class="st1" d="M175.07,59.02c5.37-4.03,25.09-14.88,35.74-25.05c3.78-3.61,20.55-16.06,22.6-18.23l13.94,2.43
	c2.07,2.16,51.45,36.45,56.49,39.29c3.59,2.02,8.21,0.75,8.76,1.21c3.71,3.05,5.45,5.87,9.79,8.26"/>
<g>
</g>
<g>
</g>
<g>
</g>
<g>
</g>
<g>
</g>
<g>
</g>
</svg>
