<?xml version="1.0" encoding="utf-8"?>
<!-- Generator: Adobe Illustrator 29.7.1, SVG Export Plug-In . SVG Version: 9.03 Build 0)  -->
<svg version="1.1" id="レイヤー_1" xmlns="http://www.w3.org/2000/svg" xmlns:xlink="http://www.w3.org/1999/xlink" x="0px"
	 y="0px" viewBox="0 0 680.31 680.31" style="enable-background:new 0 0 680.31 680.31;" xml:space="preserve">
<style type="text/css">
	.st0{fill:#DCDDDD;}
	.st1{fill:#595757;}
</style>
<rect class="st0" width="680.31" height="680.31"/>
<g>
	<path d="M209.12,61.22v56.17H190.4L178.45,83.9c-1.37-3.74-2.38-7.63-3.24-11.52h-0.65c0.94,9.22,1.37,22.18,1.37,30.03v14.98
		h-11.66V61.22h18.72l11.95,33.48c1.37,3.74,2.45,7.63,3.31,11.52h0.65c-0.94-9.29-1.44-19.15-1.44-28.51V61.22H209.12z"/>
	<path d="M265.57,89.3c0,20.16-9.86,28.8-23.91,28.8c-14.04,0-23.91-8.64-23.91-28.8s9.86-28.8,23.91-28.8
		C255.71,60.5,265.57,69.14,265.57,89.3z M251.53,89.3c0-14.26-3.53-19.44-9.87-19.44c-6.34,0-9.86,5.18-9.86,19.44
		s3.53,19.44,9.86,19.44C248,108.74,251.53,103.56,251.53,89.3z"/>
	<path d="M303.94,117.38h-13.32V61.22h13.32V117.38z"/>
	<path d="M371.41,61.22v56.17h-11.88V95.42c0-7.7,0.14-15.34,0.79-23.04h-0.72l-10.73,45h-10.58l-10.95-45h-0.72
		c0.58,7.63,0.72,15.19,0.72,23.04v21.96h-11.88V61.22h19.73l5.4,22.18c1.44,5.76,2.66,13.68,3.02,19.15h0.72
		c0.29-5.47,1.44-13.54,2.74-19.08l5.26-22.25H371.41z"/>
	<path d="M427.14,117.38h-13.32l-3.24-13.18h-17.21l-3.17,13.18h-12.31l14.33-56.17h20.52L427.14,117.38z M403.81,76.34
		c-0.65-2.52-1.22-5.11-1.58-7.7h-0.36c-0.43,2.59-1.01,5.18-1.66,7.7l-4.39,17.79h12.31L403.81,76.34z"/>
	<path d="M476.31,86.64c0.22,2.16,0.29,3.96,0.29,6.12c0,16.13-7.85,25.42-22.32,25.42c-15.99,0-24.27-9.79-24.27-28.87
		c0-17.79,9.07-28.8,23.62-28.8c11.74,0,19.37,6.34,21.39,17.79l-13.39,3.02c-0.65-7.85-3.24-11.45-8.21-11.45
		c-6.26,0-9.72,6.7-9.72,18.94c0,13.61,3.74,20.38,11.16,20.38c5.69,0,8.5-4.39,8.57-13.54h-10.3v-9H476.31z"/>
	<path d="M519.66,107.66v9.72h-34.42V61.22h33.77v9.72H498.2v13.32h18.72v9.36H498.2v14.04H519.66z"/>
</g>
<path class="st1" d="M553.71,198.69l-21.57-21.24L126.6,576.71l21.57,21.24l30.51-30.04H492.7c16.84-0.02,30.48-13.46,30.51-30.04
	V228.72L553.71,198.69z M492.7,537.88H209.19l118.88-117.03l36.29,35.73c11.91,11.73,31.23,11.73,43.14,0l24.19-23.82l61.02,60.03
	V537.88z M492.7,450.29l-39.45-38.84c-11.91-11.73-31.23-11.73-43.14,0l-24.19,23.82l-36.26-35.7L492.7,258.76V450.29z
	 M187.62,477.81v-45.05l76.27-75.04l20.94,20.63l21.6-21.27l-20.97-20.65c-11.91-11.73-31.23-11.73-43.14,0l-54.7,53.85V237.52
	h244.07v-30.04H187.62c-16.85,0-30.51,13.45-30.51,30.04v240.28H187.62z"/>
<g>
</g>
<g>
</g>
<g>
</g>
<g>
</g>
<g>
</g>
<g>
</g>
</svg>
