<?xml version="1.0" encoding="utf-8"?>
<!-- Generator: Adobe Illustrator 29.7.1, SVG Export Plug-In . SVG Version: 9.03 Build 0)  -->
<svg version="1.1" id="レイヤー_1" xmlns="http://www.w3.org/2000/svg" xmlns:xlink="http://www.w3.org/1999/xlink" x="0px"
	 y="0px" viewBox="0 0 512 128" style="enable-background:new 0 0 512 128;" xml:space="preserve">
<style type="text/css">
	.st0{fill:none;}
	.st1{stroke:#000000;stroke-miterlimit:10;}
</style>
<g>
	<path d="M171.44,83.8l-11.03-9.7l4.68-5.81h-9.73v13.77c2.08-1.51,4.16-3.31,6.19-5.42l5.15,5.36c-4.57,4.72-9.25,8.35-14.1,10.79
		c-4.48,2.23-10.03,3.95-16.75,5.21l-2.03-7.48c7.75-1.36,13.99-3.58,18.83-6.62l-4.57,0.06V68.3H128v-7.59h7.75V50.46h7.28v10.24
		h5.05V46.71h7.28v4.12h14.1v7.26h-14.09v2.6h19.93v7.59h-10.14l10.98,9.7L171.44,83.8z M133.62,84.83l-5.31-5.21L137.83,69
		l5.31,5.21L133.62,84.83z"/>
	<path d="M210.19,96.81c-3.53-4.01-8.79-10.09-15.81-18.16c-2.19-2.6-3.27-5.15-3.27-7.59c0-2.87,1.41-5.81,4.27-8.73l14.3-14.8
		l5.57,5.64c-2.97,2.98-5.93,6.02-8.9,9c-4.94,5.09-7.39,8.08-7.39,8.95c0,0.66,2.55,3.85,7.6,9.65c3.12,3.52,6.24,6.99,9.36,10.47
		L210.19,96.81z"/>
	<path d="M242.03,68.34v29h-7.02v-29h-3.64v-7.59h3.64V47.2h7.02v13.55h3.64v7.59H242.03z M273.75,86.24v11.38h-7.28V86.24h-11.18
		l4.89,4.12l-4.57,5.85l-6.76-5.69l3.33-4.28h-7.54v-6.78h21.85v-2.23h-18.63V58.21h10.81V56.2h-12.74v-6.29h12.74v-3.25h6.76v3.25
		h4.48l-0.63-1.41l5.15-2.5l1.71,3.91h3.85v6.29h-14.56v2.01h11.81v19.03h-3.49v2.23h6.24v6.78H273.75z M258.67,63.25h-4.37v2.06
		h4.37V63.25z M258.67,69.81h-4.37v2.38h4.37V69.81z M270.37,63.25h-4.94v2.06h3.53v4.5h-3.53v2.38h4.94V63.25z"/>
	<path d="M323.74,97.68V61.25h-13.17l-2.71,4.94l-5.09-3.14v1.2h-3.49v8.25l2.34-0.76l1.56,7.53l-3.9,1.36v17.02H292V83.09
		l-7.17,2.5L283.21,78l8.79-2.98V64.23h-8.58l1.51-14.31l5.83,0.76l-0.63,5.96H292v-9.97h7.28v9.97h3.49v4.11l7.91-14.42l6.09,3.68
		l-1.97,3.64h16.23v44.03h-7.29V97.68z M309.9,96.97l-5.72-4.66l12.8-16.65l5.72,4.66L309.9,96.97z M310.47,79.51l-5.72-4.72
		l9.31-12.14l5.72,4.72L310.47,79.51z"/>
	<path d="M337.46,97.36V60.92h0.93l-3.01-5.15l10.4-9.06l10.4,7.26l-2.64,5.65l-3.33-2.17v3.47h5.83v21.36h-12.33v7.32l5.98-1.08
		l-0.83-3.41l6.04-1.68l2.6,10.3L337.46,97.36z M343.45,57.67l-3.79,3.25h3.79V57.67z M349.79,66.88h-6.09V69h4.83v5.26h-4.83v2.11
		h6.09V66.88z M346.46,55.06l-2.13,1.84h5.05C348.34,56.2,347.35,55.6,346.46,55.06z M380.48,61.13v15.12h-14.15v2.87h16.54v17.51
		h-23.31v-35.5h-3.12V50.02h9.88v-3.37h6.76v3.37H384v11.11H380.48z M377.26,56.53h-14.04v2.87h14.04V56.53z M373.72,66.01h-7.39
		v4.18h7.39V66.01z M376.11,85.43h-9.77v4.99h9.77V85.43z"/>
</g>
<g>
	<path d="M234.74,20.68V19.1h-11.4v1.58H221v-3.62h6.8v-1.02h2.51v1.02h6.75v3.62H234.74z M222.06,31.53v-5.96h13.87v5.96H222.06z
		 M223.8,25.06v-3.57h10.42v3.57H223.8z M227.8,27.1h-3.41v0.68h3.41V27.1z M227.8,29.14h-3.41V30h3.41V29.14z M224.48,20.97v-1.41
		h8.87v1.41H224.48z M231.65,22.91h-5.46v0.66h5.46V22.91z M233.53,27.1h-3.21v0.68h2.67v1.36h-2.67V30h3.21V27.1z"/>
	<path d="M248.5,22.81v6.04h5.93v2.38h-14.37v-2.38h5.93v-6.04h-7v-2.38h7V16h2.51v4.43h6.64v2.38
		C255.14,22.81,248.5,22.81,248.5,22.81z"/>
	<path d="M270.35,21.4v-2h-10.73v2h-2.51v-4.29h6.59V16h2.51v1.11h6.64v4.29H270.35z M258.55,31.72v-5.45l4.63-0.02l0.36-1.07H260
		v-4.94h9.97v4.94h-3.79l-0.36,1.07l5.77,0.02v5.45H258.55z M269.09,28.23h-8.03v1.45h8.03V28.23z M267.89,22.23h-5.81v1.06h5.81
		V22.23z"/>
	<path d="M284.38,19.87v1.58h5.75v8.8h-2.51v-6.42h-3.23V32h-2.51v-8.17h-3.3v6.42h-2.51v-8.8h5.82v-1.58h-6.89v-2.38h6.89V16h2.51
		v1.48H291v2.38C291,19.87,284.38,19.87,284.38,19.87z"/>
</g>
<g>
	<rect x="22" y="22" class="st0" width="84" height="83.91"/>
	<g>
		<path class="st1" d="M68.59,29.87c0,4.34-3.53,7.87-7.87,7.87s-7.88-3.52-7.88-7.87S56.37,22,60.72,22S68.59,25.52,68.59,29.87
			 M52.53,41.68c0.75-0.84,1.82-1.32,2.94-1.32h7.59c3.9,0,6.93,3.37,6.53,7.24L67.32,69c-0.08,0.71-0.23,1.4-0.46,2.07l-1.67,4.75
			l1.12,1.27c0.24,0.28,0.44,0.59,0.6,0.92l10.5,22.29c0.98,1.94,0.19,4.31-1.75,5.28s-4.31,0.19-5.29-1.75
			c-0.03-0.06-0.06-0.12-0.09-0.18L60.02,81.86L51.2,71.79c-0.68-0.77-1.03-1.78-0.98-2.8l0.72-13.7l-2.28,2.56l-2.44,14.61
			c-0.36,2.14-2.39,3.59-4.53,3.24c-2.15-0.36-3.6-2.38-3.24-4.53l2.62-15.73c0.12-0.73,0.45-1.41,0.94-1.97L52.53,41.68
			L52.53,41.68z"/>
		<path class="st1" d="M51.53,83.59v-7.44l6.32,7.21l1.37,2.75c-0.14,0.44-0.36,0.84-0.63,1.21l-13.12,17.04
			c-1.33,1.72-3.8,2.05-5.52,0.72c-1.73-1.32-2.05-3.79-0.72-5.52l0,0L51.53,83.59z M73.69,61.49l-2.59-2.59l1.08-9.67l0.03-0.35
			l5.9,5.89h7.56c2.17,0,3.94,1.76,3.94,3.93s-1.76,3.93-3.94,3.93h-9.19C75.42,62.64,74.42,62.23,73.69,61.49L73.69,61.49z"/>
	</g>
</g>
<g>
	<rect x="406" y="22" class="st0" width="84" height="84"/>
	<path d="M431.31,29.73c-8.7,0-15.75,7.05-15.75,15.75l0,0c-0.08,9.52,8.67,17.08,18.08,15.56c1.16-2.31,2.11-4.45,2.98-6.68
		l7.72-0.03C451.5,44.34,443.66,29.39,431.31,29.73 M438.49,57.27c-7.27,16.24-17.79,31.36-30.59,44.95h79.69
		c-10.39-15.03-23.01-30.27-28.05-44.95H438.49z M437.2,66.61l1.43,7.89l3.23-7.18l3.52,7.18l4.07-7.88l1.18,10.5l4-10.5l6.5,7.88
		l-0.47-7.21c5.45,10.7,13.66,21.39,21.22,31.99h-67.35C423.55,89.04,431.14,78.17,437.2,66.61"/>
</g>
</svg>
